<?xml version="1.0" encoding="UTF-8" standalone="no"?>
<!-- Created with Inkscape (http://www.inkscape.org/) -->

<svg
   width="109.52615mm"
   height="15.386986mm"
   viewBox="0 0 109.52615 15.386986"
   version="1.1"
   id="svg1"
   inkscape:version="1.3 (0e150ed6c4, 2023-07-21)"
   sodipodi:docname="Logo_Kombi_IAS_Blau.svg"
   inkscape:export-filename="Logo_Kombi_IAS_Blau.png"
   inkscape:export-xdpi="500"
   inkscape:export-ydpi="500"
   xmlns:inkscape="http://www.inkscape.org/namespaces/inkscape"
   xmlns:sodipodi="http://sodipodi.sourceforge.net/DTD/sodipodi-0.dtd"
   xmlns="http://www.w3.org/2000/svg"
   xmlns:svg="http://www.w3.org/2000/svg">
  <sodipodi:namedview
     id="namedview1"
     pagecolor="#ffffff"
     bordercolor="#000000"
     borderopacity="0.25"
     inkscape:showpageshadow="2"
     inkscape:pageopacity="0.0"
     inkscape:pagecheckerboard="0"
     inkscape:deskcolor="#d1d1d1"
     inkscape:document-units="mm"
     showgrid="true"
     inkscape:zoom="2.7687711"
     inkscape:cx="207.31219"
     inkscape:cy="32.685981"
     inkscape:window-width="1920"
     inkscape:window-height="1094"
     inkscape:window-x="-11"
     inkscape:window-y="-11"
     inkscape:window-maximized="1"
     inkscape:current-layer="layer1">
    <inkscape:grid
       id="grid3"
       units="mm"
       originx="83.32692"
       originy="-158.7534"
       spacingx="0.99999998"
       spacingy="1"
       empcolor="#0099e5"
       empopacity="0.30196078"
       color="#0099e5"
       opacity="0.14901961"
       empspacing="5"
       dotted="false"
       gridanglex="30"
       gridanglez="30"
       visible="true" />
    <sodipodi:guide
       position="2.9e-05,15.386986"
       orientation="0,410.30351"
       id="guide1"
       inkscape:locked="false" />
    <sodipodi:guide
       position="108.5595,15.386986"
       orientation="58.155537,0"
       id="guide2"
       inkscape:locked="false" />
    <sodipodi:guide
       position="108.5595,0"
       orientation="0,-410.30351"
       id="guide3"
       inkscape:locked="false" />
    <sodipodi:guide
       position="2.9e-05,0"
       orientation="-58.155537,0"
       id="guide4"
       inkscape:locked="false" />
  </sodipodi:namedview>
  <defs
     id="defs1" />
  <g
     inkscape:label="Ebene 1"
     inkscape:groupmode="layer"
     id="layer1"
     transform="translate(22.046914,-42.003501)">
    <text
       xml:space="preserve"
       style="font-style:normal;font-variant:normal;font-weight:normal;font-stretch:normal;font-size:12.3472px;line-height:1.05;font-family:Calibri;-inkscape-font-specification:Calibri;text-align:center;text-anchor:middle;fill:#00385f;fill-opacity:1;stroke:none;stroke-width:0.0499999"
       x="32.400299"
       y="55.255695"
       id="text1"><tspan
         sodipodi:role="line"
         id="tspan1"
         style="font-style:normal;font-variant:normal;font-weight:bold;font-stretch:normal;font-size:12.3472px;font-family:Cabin;-inkscape-font-specification:'Cabin Bold';fill:#00385f;fill-opacity:1;stroke:none;stroke-width:0.05"
         x="32.400299"
         y="55.255695">IAS</tspan></text>
    <text
       xml:space="preserve"
       style="font-style:normal;font-variant:normal;font-weight:normal;font-stretch:normal;font-size:4.93889px;line-height:1.1;font-family:Calibri;-inkscape-font-specification:Calibri;text-align:center;text-anchor:middle;fill:#00385f;fill-opacity:1;stroke:none;stroke-width:0.0499999"
       x="43.063805"
       y="49.548294"
       id="text2"><tspan
         sodipodi:role="line"
         id="tspan2"
         style="font-style:normal;font-variant:normal;font-weight:bold;font-stretch:normal;font-size:4.93889px;line-height:1.1;font-family:Cabin;-inkscape-font-specification:'Cabin Bold';text-align:start;text-anchor:start;fill:#00385f;fill-opacity:1;stroke:none;stroke-width:0.05"
         x="43.063805"
         y="49.548294"
         dy="0.49000001">Interconnected </tspan><tspan
         sodipodi:role="line"
         style="font-style:normal;font-variant:normal;font-weight:bold;font-stretch:normal;font-size:4.93889px;line-height:1.1;font-family:Cabin;-inkscape-font-specification:'Cabin Bold';text-align:start;text-anchor:start;fill:#00385f;fill-opacity:1;stroke:none;stroke-width:0.05"
         x="43.063805"
         y="55.199562"
         id="tspan3">Automation Systems</tspan></text>
    <path
       class="cls-1"
       d="m 3.1359066,55.232583 h 0.650881 v -1.810068 c 0.1915445,-0.158691 0.420903,-0.27337 0.6341435,-0.27337 0.333499,0 0.3992064,0.257253 0.3992064,0.574015 v 1.509423 h 0.6564603 v -1.711505 c 0,-0.738286 -0.4215238,-0.940369 -0.8312681,-0.940369 -0.3223399,0 -0.6124479,0.141954 -0.8858165,0.355195 L 3.6938018,52.646417 H 3.1359076 Z M 0.95762754,53.666131 c 0,-0.309944 0.18038716,-0.585172 0.50272796,-0.585172 0.3446564,0 0.4866105,0.290106 0.4959087,0.585172 z M 1.6302034,55.290232 A 1.7356819,1.7356819 0 0 0 2.5432962,55.049717 L 2.346172,54.595961 a 1.3017615,1.3017615 0 0 1 -0.6558395,0.174807 c -0.4339195,0 -0.71658735,-0.257252 -0.72712661,-0.65646 H 2.6195419 v -0.150632 c 0,-0.857923 -0.420902,-1.382967 -1.1480286,-1.382967 -0.73828534,0 -1.16476569,0.585172 -1.16476569,1.36375 0,0.699852 0.37751004,1.345154 1.32345579,1.345154 m -2.8440365,-1.25155 c -0.2901066,0 -0.4537557,-0.224399 -0.4537557,-0.481033 0,-0.309943 0.1909234,-0.481032 0.4481764,-0.481032 0.28948747,0 0.46491434,0.229358 0.46491434,0.486612 0,0.309942 -0.19712284,0.475453 -0.45933504,0.475453 m 0.043394,2.033847 c -0.4339192,0 -0.7054296,-0.158072 -0.7054296,-0.415324 0,-0.16923 0.123977,-0.278949 0.2082819,-0.339078 0.3496153,0.136994 1.15360795,0.062 1.15360795,0.43392 0,0.191545 -0.26283265,0.32234 -0.65646025,0.32234 m -0.089885,0.454379 c 0.89697505,0 1.36374926,-0.38247 1.36374926,-0.852966 0,-0.967641 -1.70034736,-0.535581 -1.70034736,-1.000494 a 0.36511309,0.36511309 0 0 1 0.065711,-0.191546 1.0662046,1.0662046 0 0 0 0.3173811,0.04402 c 0.62856337,0 1.07116234,-0.37751 1.07116234,-0.957104 a 0.88891712,0.88891712 0 0 0 -0.22935846,-0.612448 0.41284436,0.41284436 0 0 1 0.19154587,-0.04339 0.77981711,0.77981711 0 0 1 0.19092438,0.02727 l 0.13141579,-0.470494 a 1.6216229,1.6216229 0 0 0 -0.17480774,-0.01054 c -0.31738132,0 -0.4866104,0.08741 -0.62360558,0.22378 a 0.05702955,0.05702955 0 0 1 -0.0657115,0.01116 1.0624853,1.0624853 0 0 0 -0.5138846,-0.114679 c -0.7054308,0 -1.053807,0.475453 -1.053807,0.951526 0,0.344036 0.1586911,0.644681 0.4339213,0.805852 -0.2132417,0.147533 -0.3099433,0.333499 -0.3099433,0.486611 a 0.36573297,0.36573297 0 0 0 0.1692283,0.322961 c -0.2677904,0.114678 -0.4642943,0.339078 -0.4642943,0.619886 0,0.448798 0.4425974,0.75998 1.2025794,0.75998 M -4.38951,53.666139 c 0,-0.309944 0.180386,-0.585173 0.5027269,-0.585173 0.3446563,0 0.4866114,0.290107 0.4959088,0.585173 z m 0.6725758,1.624102 a 1.7356819,1.7356819 0 0 0 0.9130918,-0.240516 L -3.0009665,54.59596 a 1.3017615,1.3017615 0 0 1 -0.6558385,0.174808 c -0.4339206,0 -0.7165883,-0.257253 -0.7271266,-0.65646 h 1.6563361 v -0.150633 c 0,-0.857921 -0.4209031,-1.382966 -1.1480287,-1.382966 -0.7382844,0 -1.1647667,0.585173 -1.1647667,1.363751 0,0.699852 0.3775113,1.345153 1.3234569,1.345153 m -2.1925363,-3.064718 a 0.39114832,0.39114832 0 1 0 -0.3985865,-0.388049 0.38494947,0.38494947 0 0 0 0.3985865,0.388049 m -0.3279217,3.007679 h 0.6564605 V 52.646408 H -6.236152 Z m -2.93578,-0.257252 c 0.2733695,0.191544 0.6669975,0.309943 1.0879006,0.309943 0.7382833,0 1.2850227,-0.393628 1.2850227,-1.033351 0,-1.143071 -1.5583937,-1.053807 -1.5583937,-1.717086 0,-0.289486 0.2405173,-0.388048 0.4921901,-0.388048 a 1.8739167,1.8739167 0 0 1 0.8585432,0.229358 v -0.60129 a 2.0400463,2.0400463 0 0 0 -0.8808586,-0.180387 c -0.7488226,0 -1.1697256,0.464914 -1.1697256,0.991819 0,1.099059 1.5583934,1.011653 1.5583934,1.717085 0,0.309943 -0.3006443,0.426482 -0.6019096,0.426482 a 1.41892,1.41892 0 0 1 -0.8132912,-0.257874 z"
       id="path1"
       style="fill:#00385f;stroke-width:0.264583" />
    <path
       class="cls-1"
       d="m 15.38114,50.323083 c 0.257252,0 0.569055,-0.07687 0.754402,-0.202703 l -0.196504,-0.448178 a 0.73146597,0.73146597 0 0 1 -0.393629,0.123978 c -0.169847,0 -0.251673,-0.0874 -0.251673,-0.327921 v -1.277584 h 0.623605 l 0.158071,-0.508308 h -0.781676 v -0.793454 l -0.650881,0.191544 v 0.60191 h -0.464296 v 0.508308 h 0.464296 v 1.438135 c 0,0.433921 0.27895,0.694273 0.738285,0.694273 m -2.107615,-3.029385 a 0.33659832,0.33659832 0 1 0 -0.333499,-0.333498 0.33101935,0.33101935 0 0 0 0.333499,0.333498 m -1.044509,0 a 0.33659832,0.33659832 0 1 0 -0.333499,-0.333498 0.33597842,0.33597842 0 0 0 0.333499,0.333498 m 0.901936,1.771635 v 0.552319 a 0.79903357,0.79903357 0 0 1 -0.502728,0.191546 c -0.234938,0 -0.38309,-0.131417 -0.38309,-0.355816 a 0.30994319,0.30994319 0 0 1 0.158691,-0.295065 0.82630858,0.82630858 0 0 1 0.377511,-0.08182 z m 0.153111,1.2032 h 0.54674 c -0.03781,-0.136995 -0.04897,-0.361392 -0.04897,-0.662039 v -1.049467 c 0,-0.623606 -0.344657,-0.940368 -1.03893,-0.940368 a 2.0369467,2.0369467 0 0 0 -1.000497,0.256633 l 0.213241,0.420903 a 1.4709905,1.4709905 0 0 1 0.678157,-0.180387 c 0.300644,0 0.495909,0.131415 0.495909,0.433921 v 0.08182 l -0.4426,0.01551 a 1.6055058,1.6055058 0 0 0 -0.666998,0.147534 c -0.26779,0.136995 -0.437639,0.355194 -0.437639,0.70543 0,0.495909 0.366354,0.825689 0.858543,0.825689 a 1.0674444,1.0674444 0 0 0 0.743864,-0.300645 z m -2.636376,0.05455 c 0.257252,0 0.568435,-0.07686 0.754401,-0.202703 l -0.196504,-0.448178 a 0.73146597,0.73146597 0 0 1 -0.393627,0.123978 c -0.16985,0 -0.251675,-0.0874 -0.251675,-0.327921 v -1.277584 h 0.619887 l 0.15869,-0.508308 H 10.561522 V 46.888916 L 9.9106423,47.080461 V 47.68237 H 9.4457269 v 0.508308 h 0.4649154 v 1.438136 c 0,0.43392 0.2789497,0.694272 0.7382837,0.694272 M 8.6758291,47.260844 A 0.39114832,0.39114832 0 1 0 8.2766217,46.872795 0.38556934,0.38556934 0 0 0 8.6758291,47.260844 M 8.3479085,50.268533 H 9.0037494 V 47.681747 H 8.3479085 Z M 5.8299319,50.07079 a 1.8441621,1.8441621 0 0 0 0.9515249,0.251673 c 0.5578982,0 1.050087,-0.234936 1.050087,-0.805852 0,-0.901935 -1.213737,-0.743863 -1.213737,-1.153609 0,-0.169229 0.1475324,-0.234936 0.3663536,-0.234936 a 1.8423023,1.8423023 0 0 1 0.7320842,0.16365 v -0.551699 a 2.2458485,2.2458485 0 0 0 -0.75998,-0.123977 c -0.6068685,0 -0.9781797,0.322341 -0.9781797,0.781676 0,0.864122 1.2137367,0.699852 1.2137367,1.137491 0,0.196505 -0.1915446,0.27337 -0.4537567,0.27337 A 1.3215978,1.3215978 0 0 1 6.0326352,49.595334 Z m -1.5943465,0.197124 h 0.65088 v -1.825567 c 0.2132405,-0.185965 0.3551936,-0.257252 0.524424,-0.257252 a 0.5516989,0.5516989 0 0 1 0.295685,0.0874 c 0,0 0.1568317,-0.592611 0.1580707,-0.592611 a 0.71472903,0.71472903 0 0 0 -0.2950649,-0.06199 c -0.2622118,0 -0.4754527,0.120257 -0.7110097,0.355194 L 4.7879053,47.683607 H 4.2355864 Z M 2.0250711,48.69898 c 0,-0.309942 0.1803881,-0.585172 0.5033475,-0.585172 0.3440379,0 0.4866104,0.290106 0.4959087,0.585172 z M 2.697647,50.323084 A 1.7356819,1.7356819 0 0 0 3.6107398,50.082565 L 3.4160945,49.636867 a 1.2968024,1.2968024 0 0 1 -0.656458,0.175428 c -0.4339205,0 -0.7159689,-0.257252 -0.7271266,-0.65646 h 1.6569555 v -0.153112 c 0,-0.858543 -0.420902,-1.382967 -1.1486491,-1.382967 -0.7376638,0 -1.1641452,0.584554 -1.1641452,1.363751 0,0.699851 0.3768906,1.345153 1.3228364,1.345153 M -0.28710369,50.29023 H 0.20508506 L 1.2545525,47.686706 H 0.59933353 l -0.62856446,1.760476 h -0.01116883 l -0.6397232,-1.760478 H -1.3421606 Z M -1.9955102,47.260845 a 0.39114832,0.39114832 0 1 0 -0.3992062,-0.38805 0.38494947,0.38494947 0 0 0 0.3992062,0.38805 m -0.3285379,3.007688 h 0.6564593 v -2.586786 h -0.6564593 z m -2.9990097,0 h 0.6533599 v -1.809448 c 0.1915446,-0.158692 0.4209021,-0.273369 0.6341435,-0.273369 0.333499,0 0.3992064,0.257252 0.3992064,0.574015 v 1.509422 h 0.6564579 v -1.712126 c 0,-0.738284 -0.4215213,-0.940368 -0.8312656,-0.940368 -0.3229604,0 -0.6124479,0.141954 -0.8858165,0.355196 l -0.065711,-0.289487 h -0.5578982 z m -2.2086538,0.05455 c 0.6614182,0 1.131911,-0.22998 1.3556907,-0.694274 a 1.5906285,1.5906285 0 0 0 0.1369953,-0.705431 v -2.25825 H -6.695485 v 2.208654 a 1.1009183,1.1009183 0 0 1 -0.097947,0.492189 c -0.1239766,0.257253 -0.377511,0.404787 -0.738284,0.404787 -0.3607729,0 -0.6124478,-0.147534 -0.7382843,-0.404787 a 1.0835614,1.0835614 0 0 1 -0.098562,-0.486611 v -2.214232 h -0.6558384 v 2.258245 a 1.5819501,1.5819501 0 0 0 0.1363743,0.699847 c 0.2188213,0.469874 0.689314,0.699853 1.3563116,0.699853"
       id="path2"
       style="fill:#00385f;stroke-width:0.264583" />
    <path
       class="cls-1"
       d="m -15.358396,54.237046 c -0.557898,0.619886 -1.425739,1.014134 -2.570049,1.014134 -1.31602,0 -2.423137,-0.526904 -3.135387,-1.36375 -0.696754,-0.819489 -0.975082,-1.894992 -0.975082,-3.436031 l -0.008,-3.785647 h 3.816643 v 3.723659 c 0,0.688695 0.07005,0.998636 0.146912,1.19204 0.147534,0.363874 0.573397,0.812672 1.285647,0.812672 0.657698,0 1.115794,-0.394247 1.285023,-0.812672 0.07687,-0.193404 0.146914,-0.503345 0.146914,-1.19204 v -3.398837 l -0.87466,0.371932 V 44.99268 l 2.789488,-1.664395 2.78949,1.664395 v 2.369206 l -0.882769,-0.371932 v 8.222173 h -3.814159 z"
       id="path3"
       style="fill:#00385f;stroke-width:0.264583" />
    <polygon
       class="cls-1"
       points="137.19,0 34.02,283.46 24.09,283.46 127.27,0 "
       id="polygon1"
       style="fill:#00385f;stroke-width:4.87417"
       transform="matrix(0.05428274,0,0,0.05428274,15.790292,42.003501)" />
  </g>
</svg>
